<?xml version="1.0" encoding="UTF-8"?>
<svg version="1.1" xmlns="http://www.w3.org/2000/svg" width="225" height="103">
<path d="M0 0 C1.24320259 -0.0049926 1.24320259 -0.0049926 2.51152039 -0.01008606 C4.25026905 -0.01511943 5.98902726 -0.0174955 7.7277832 -0.01733398 C10.39615401 -0.01953905 13.06412304 -0.03778252 15.73242188 -0.05664062 C17.42577984 -0.05957154 19.11913976 -0.06155835 20.8125 -0.0625 C21.61142166 -0.06968552 22.41034332 -0.07687103 23.23347473 -0.08427429 C28.84536961 -0.06088039 28.84536961 -0.06088039 31.07421875 2.16796875 C31.33984375 5.1015625 31.33984375 5.1015625 31.32421875 8.60546875 C31.33195312 10.33603516 31.33195312 10.33603516 31.33984375 12.1015625 C31.07421875 15.16796875 31.07421875 15.16796875 29.07421875 18.16796875 C28.41421875 18.16796875 27.75421875 18.16796875 27.07421875 18.16796875 C26.82671875 18.74546875 26.57921875 19.32296875 26.32421875 19.91796875 C24.90738558 22.46826845 23.19794338 24.18582576 21.07421875 26.16796875 C21.98171875 26.86921875 22.88921875 27.57046875 23.82421875 28.29296875 C26.93048433 30.87661619 29.04300906 33.65241352 31.07421875 37.16796875 C31.07421875 37.82796875 31.07421875 38.48796875 31.07421875 39.16796875 C31.73421875 39.16796875 32.39421875 39.16796875 33.07421875 39.16796875 C33.11546875 38.36359375 33.15671875 37.55921875 33.19921875 36.73046875 C34.24487089 32.47317075 36.16577293 29.7448681 38.69921875 26.21875 C40.23759329 24.1206059 40.23759329 24.1206059 41.07421875 21.16796875 C41.73421875 21.16796875 42.39421875 21.16796875 43.07421875 21.16796875 C43.31269531 20.65363281 43.55117187 20.13929687 43.796875 19.609375 C45.51666041 16.32232338 47.50762773 13.22330341 49.51171875 10.10546875 C50.10436523 9.16864258 50.10436523 9.16864258 50.70898438 8.21289062 C54.5444779 2.23309456 54.5444779 2.23309456 57.07421875 0.16796875 C58.9753418 -0.17260742 58.9753418 -0.17260742 61.0859375 -0.125 C61.84326172 -0.11533203 62.60058594 -0.10566406 63.38085938 -0.09570312 C64.16654297 -0.07056641 64.95222656 -0.04542969 65.76171875 -0.01953125 C66.55900391 -0.00599609 67.35628906 0.00753906 68.17773438 0.02148438 C70.14351842 0.05679786 72.10895457 0.11060428 74.07421875 0.16796875 C75.20456885 3.55901906 75.15322884 4.00046735 73.51171875 7.48046875 C71.45461717 10.82505699 69.00224472 13.70924693 66.34375 16.58984375 C64.85060832 18.25838708 64.85060832 18.25838708 64.07421875 21.16796875 C69.89082869 20.85636465 73.05643724 19.76240483 77.80859375 16.48828125 C80.48776635 14.92697032 83.10569596 14.11804215 86.07421875 13.23046875 C89.98622892 12.0177456 92.90092993 10.82198796 96.07421875 8.23046875 C106.28003451 0.07826226 117.1174667 -1.10213806 129.77148438 -0.11865234 C138.9250936 1.02069639 145.75107611 5.7313338 152.07421875 12.16796875 C153.06421875 13.15796875 153.06421875 13.15796875 154.07421875 14.16796875 C155.0178125 13.40613281 155.0178125 13.40613281 155.98046875 12.62890625 C157.76224028 11.19597553 159.54898503 9.76921359 161.33984375 8.34765625 C163.01017016 7.01616748 164.66948957 5.67052215 166.30859375 4.30078125 C169.43635512 1.76705208 171.35852597 0.28950149 175.38671875 -0.39453125 C178.07421875 0.16796875 178.07421875 0.16796875 179.94921875 1.29296875 C181.64874488 4.12551231 181.60263196 5.93143782 181.07421875 9.16796875 C178.57421875 11.54296875 178.57421875 11.54296875 176.07421875 13.16796875 C176.54472656 13.72484375 177.01523438 14.28171875 177.5 14.85546875 C183.18976235 21.82925615 186.81380932 27.90734214 186.49609375 37.12109375 C185.78251213 40.58328603 183.81752181 42.11049146 181.07421875 44.16796875 C176.07656313 47.2030257 170.73400619 46.72903814 165.07421875 46.16796875 C157.56537419 44.19843575 150.77153061 39.98772836 144.07421875 36.16796875 C143.04905151 37.01439941 143.04905151 37.01439941 142.00317383 37.87792969 C138.83889586 40.35195881 135.55868082 42.59531042 132.2109375 44.80859375 C131.21937401 45.46831177 131.21937401 45.46831177 130.20777893 46.14135742 C128.06061279 47.56919871 125.91127063 48.99372213 123.76171875 50.41796875 C121.5296468 51.89958683 119.29793726 53.38174968 117.06625366 54.86395264 C115.56777444 55.85908374 114.0690965 56.85391566 112.57022095 57.84844971 C107.94699739 60.91756694 103.33567949 64.00360432 98.734375 67.10546875 C97.64229736 67.83991211 96.55021973 68.57435547 95.42504883 69.33105469 C93.40559697 70.69018188 91.38838616 72.05264677 89.3737793 73.41894531 C88.47570557 74.0219043 87.57763184 74.62486328 86.65234375 75.24609375 C85.8830957 75.7659082 85.11384766 76.28572266 84.32128906 76.82128906 C81.97555046 78.22710112 79.63615926 79.22207364 77.07421875 80.16796875 C77.4601889 77.36968519 77.87558448 76.34738035 80.01171875 74.41796875 C82.07421875 73.16796875 82.07421875 73.16796875 84.07421875 73.16796875 C84.56921875 71.68296875 84.56921875 71.68296875 85.07421875 70.16796875 C86.703125 68.78125 86.703125 68.78125 88.63671875 67.48046875 C89.59771484 66.82498047 89.59771484 66.82498047 90.578125 66.15625 C91.07183594 65.83011719 91.56554687 65.50398438 92.07421875 65.16796875 C90.75421875 63.18796875 89.43421875 61.20796875 88.07421875 59.16796875 C87.54634766 60.03808594 87.54634766 60.03808594 87.0078125 60.92578125 C79.49429735 72.81400626 79.49429735 72.81400626 72.6640625 74.90625 C71.08346268 75.23439354 69.4927178 75.51855533 67.89453125 75.74609375 C66.99347656 75.95492187 66.99347656 75.95492187 66.07421875 76.16796875 C65.74421875 76.82796875 65.41421875 77.48796875 65.07421875 78.16796875 C54.9185709 77.62658311 45.76566948 76.11266905 38.40625 68.42578125 C34.42282986 63.86519097 34.42282986 63.86519097 33.07421875 61.16796875 C32.58953125 61.75964844 32.10484375 62.35132813 31.60546875 62.9609375 C24.97770517 70.77405111 18.28591106 76.35622613 7.77734375 77.5390625 C-1.40861822 77.71571561 -8.05072179 76.58137486 -14.98828125 70.30078125 C-19.78243282 65.16704394 -22.71512009 60.43321672 -23.17578125 53.29296875 C-22.92578125 50.16796875 -22.92578125 50.16796875 -21.92578125 49.16796875 C-19.39528723 49.09483308 -16.89273288 49.07549348 -14.36328125 49.10546875 C-13.65236328 49.10998047 -12.94144531 49.11449219 -12.20898438 49.11914062 C-10.44788112 49.13096011 -8.68682089 49.14889612 -6.92578125 49.16796875 C-6.76722656 49.79445312 -6.60867187 50.4209375 -6.4453125 51.06640625 C-5.15287239 56.09483769 -5.15287239 56.09483769 -1.73828125 59.73046875 C3.18202056 60.49584903 7.2707625 60.91287459 11.94921875 58.98046875 C14.5361557 56.7739637 15.32026845 55.48535005 16.07421875 52.16796875 C15.76688922 48.6029462 15.20477378 45.55963383 14.07421875 42.16796875 C11.05139232 41.13249828 11.05139232 41.13249828 7.51171875 40.48046875 C5.71541016 40.10341797 5.71541016 40.10341797 3.8828125 39.71875 C2.95597656 39.53699219 2.02914062 39.35523438 1.07421875 39.16796875 C-0.01915424 32.620904 -0.32719139 28.149759 3.07421875 22.16796875 C4.39421875 20.51796875 5.71421875 18.86796875 7.07421875 17.16796875 C-0.84578125 17.16796875 -8.76578125 17.16796875 -16.92578125 17.16796875 C-17.05078125 3.41796875 -17.05078125 3.41796875 -15.92578125 1.16796875 C-10.62853691 0.08458824 -5.39175038 0.00760657 0 0 Z M172.07421875 6.16796875 C171.08421875 7.15796875 170.09421875 8.14796875 169.07421875 9.16796875 C170.39421875 9.49796875 171.71421875 9.82796875 173.07421875 10.16796875 C173.73421875 9.17796875 174.39421875 8.18796875 175.07421875 7.16796875 C174.08421875 6.83796875 173.09421875 6.50796875 172.07421875 6.16796875 Z M166.07421875 11.16796875 C163.33935098 12.9058444 163.33935098 12.9058444 161.07421875 15.16796875 C161.07421875 15.82796875 161.07421875 16.48796875 161.07421875 17.16796875 C164.44925544 15.98214505 166.72144606 14.89223186 169.07421875 12.16796875 C168.08421875 11.83796875 167.09421875 11.50796875 166.07421875 11.16796875 Z M120.07421875 14.16796875 C122.9606096 16.09222932 125.89270257 17.85425174 128.88671875 19.60546875 C129.90378906 20.20230469 130.92085937 20.79914062 131.96875 21.4140625 C134.95979172 23.10334267 137.98856828 24.65973601 141.07421875 26.16796875 C140.51047988 22.69533732 139.46570908 21.2547981 136.76171875 19.04296875 C136.16746094 18.54539062 135.57320312 18.0478125 134.9609375 17.53515625 C131.34388286 14.91410216 128.82117835 13.91070523 124.32421875 14.04296875 C123.12539062 14.07003906 123.12539062 14.07003906 121.90234375 14.09765625 C120.99742187 14.13246094 120.99742187 14.13246094 120.07421875 14.16796875 Z M171.07421875 15.16796875 C170.43097656 15.86277344 169.78773438 16.55757812 169.125 17.2734375 C165.54630698 20.85213052 161.41535889 23.61504894 157.26171875 26.48046875 C156.07932617 27.30514648 156.07932617 27.30514648 154.87304688 28.14648438 C152.94319937 29.49152961 151.01025674 30.83185682 149.07421875 32.16796875 C155.82562494 37.75131158 163.70881199 42.53172514 172.76171875 41.91796875 C175.57377024 41.28127785 177.67644518 40.73574378 180.07421875 39.16796875 C181.5877974 36.14081145 181.60752423 33.43970797 181.07421875 30.16796875 C178.8194509 24.16149174 175.94597145 19.34375678 171.07421875 15.16796875 Z M103.07421875 22.16796875 C97.880153 27.63540639 96.59790626 33.1898352 96.75390625 40.56640625 C97.39037607 45.7357831 99.12969267 50.57473479 103.21484375 53.921875 C104.13523437 54.53869141 104.13523437 54.53869141 105.07421875 55.16796875 C105.99460938 54.35714844 106.915 53.54632813 107.86328125 52.7109375 C114.97496121 46.4800576 122.14120975 40.39550858 129.68017578 34.68432617 C132.35507738 32.63555725 134.18402553 31.00325858 136.07421875 28.16796875 C119.79193071 16.30461778 119.79193071 16.30461778 103.07421875 22.16796875 Z M82.19921875 18.04296875 C80.87277344 18.56503906 80.87277344 18.56503906 79.51953125 19.09765625 C76.89388134 20.16214698 76.89388134 20.16214698 74.07421875 22.16796875 C74.07421875 22.82796875 74.07421875 23.48796875 74.07421875 24.16796875 C76.03312756 25.56097057 78.03813055 26.89042321 80.07421875 28.16796875 C81.06421875 28.82796875 82.05421875 29.48796875 83.07421875 30.16796875 C83.72332029 28.58597244 84.36836569 27.00231151 85.01171875 25.41796875 C85.55119141 24.09539063 85.55119141 24.09539063 86.1015625 22.74609375 C86.92778451 20.55610771 87.56791818 18.44898604 88.07421875 16.16796875 C86.04539095 16.16796875 84.05129325 17.30750728 82.19921875 18.04296875 Z M60.07421875 36.16796875 C59.11487685 37.43804089 58.15678581 38.70905794 57.19921875 39.98046875 C56.66554688 40.68816406 56.131875 41.39585938 55.58203125 42.125 C54.36607094 43.77253172 53.21005734 45.46421086 52.07421875 47.16796875 C52.52474609 46.33652344 52.52474609 46.33652344 52.984375 45.48828125 C53.36464844 44.76382813 53.74492188 44.039375 54.13671875 43.29296875 C54.51957031 42.57367188 54.90242188 41.854375 55.296875 41.11328125 C55.55339844 40.47132812 55.80992188 39.829375 56.07421875 39.16796875 C55.74421875 38.50796875 55.41421875 37.84796875 55.07421875 37.16796875 C50.56236448 40.40706452 50.56236448 40.40706452 48.07421875 45.16796875 C47.65260158 50.48034503 47.54262164 53.90569638 51.07421875 58.16796875 C54.63758872 61.1204753 57.65807137 61.64762297 62.1484375 61.453125 C66.11611659 60.86561877 68.30340311 59.04510379 70.88671875 56.10546875 C72.64210845 51.76318898 72.87086481 47.78092881 72.07421875 43.16796875 C68.8257961 38.44299034 65.43659028 37.32455869 60.07421875 36.16796875 Z " fill="#1F3347" transform="translate(30.92578125,13.83203125)"/>
<path d="M0 0 C3.90431897 2.46008813 7.26331839 5.28348933 10.4921875 8.5703125 C11.4821875 9.5603125 11.4821875 9.5603125 12.4921875 10.5703125 C13.43578125 9.80847656 13.43578125 9.80847656 14.3984375 9.03125 C16.18020903 7.59831928 17.96695378 6.17155734 19.7578125 4.75 C21.42813891 3.41851123 23.08745832 2.0728659 24.7265625 0.703125 C27.85432387 -1.83060417 29.77649472 -3.30815476 33.8046875 -3.9921875 C36.4921875 -3.4296875 36.4921875 -3.4296875 38.3671875 -2.3046875 C40.06671363 0.52785606 40.02060071 2.33378157 39.4921875 5.5703125 C36.9921875 7.9453125 36.9921875 7.9453125 34.4921875 9.5703125 C34.96269531 10.1271875 35.43320313 10.6840625 35.91796875 11.2578125 C41.6077311 18.2315999 45.23177807 24.30968589 44.9140625 33.5234375 C44.20048088 36.98562978 42.23549056 38.51283521 39.4921875 40.5703125 C34.49453188 43.60536945 29.15197494 43.13138189 23.4921875 42.5703125 C15.98334294 40.6007795 9.18949936 36.39007211 2.4921875 32.5703125 C1.46702026 33.41674316 1.46702026 33.41674316 0.42114258 34.28027344 C-2.74313539 36.75430256 -6.02335043 38.99765417 -9.37109375 41.2109375 C-10.03213608 41.65074951 -10.69317841 42.09056152 -11.37425232 42.54370117 C-13.52141846 43.97154246 -15.67076062 45.39606588 -17.8203125 46.8203125 C-20.05238445 48.30193058 -22.28409399 49.78409343 -24.51577759 51.26629639 C-26.01425681 52.26142749 -27.51293475 53.25625941 -29.0118103 54.25079346 C-33.63503386 57.31991069 -38.24635176 60.40594807 -42.84765625 63.5078125 C-43.93973389 64.24225586 -45.03181152 64.97669922 -46.15698242 65.73339844 C-48.17643428 67.09252563 -50.19364509 68.45499052 -52.20825195 69.82128906 C-53.10632568 70.42424805 -54.00439941 71.02720703 -54.9296875 71.6484375 C-55.69893555 72.16825195 -56.46818359 72.68806641 -57.26074219 73.22363281 C-59.60648079 74.62944487 -61.94587199 75.62441739 -64.5078125 76.5703125 C-64.12184235 73.77202894 -63.70644677 72.7497241 -61.5703125 70.8203125 C-59.5078125 69.5703125 -59.5078125 69.5703125 -57.5078125 69.5703125 C-57.0128125 68.0853125 -57.0128125 68.0853125 -56.5078125 66.5703125 C-54.64743285 65.02094724 -52.71963423 63.55154455 -50.7578125 62.1328125 C-43.38806549 57.102856 -43.38806549 57.102856 -37.5078125 50.5703125 C-36.01953125 49.3515625 -36.01953125 49.3515625 -34.1953125 48.0703125 C-30.36382309 45.27492458 -26.73639935 42.27530576 -23.1328125 39.1953125 C-17.67966893 34.53900794 -12.14107449 30.00825479 -6.5078125 25.5703125 C-10.55801018 22.0353063 -14.77157187 19.75891248 -19.5703125 17.4453125 C-20.27736328 17.09855469 -20.98441406 16.75179687 -21.71289062 16.39453125 C-23.02865164 15.74962304 -24.34564036 15.10720843 -25.66430664 14.46826172 C-26.9541762 13.83998199 -28.2260246 13.17395036 -29.48217773 12.48071289 C-36.26938381 9.430274 -47.01520611 10.70488791 -54.0390625 12.4453125 C-57.01567956 13.63595933 -59.72747015 14.97582222 -62.5078125 16.5703125 C-63.48492187 17.12460937 -64.46203125 17.67890625 -65.46875 18.25 C-72.81198169 22.67956335 -78.13894259 27.122636 -82.5078125 34.5703125 C-83.73118929 36.51147354 -84.96043481 38.44894745 -86.1953125 40.3828125 C-86.81792969 41.35863281 -87.44054687 42.33445313 -88.08203125 43.33984375 C-88.55253906 44.07589844 -89.02304688 44.81195313 -89.5078125 45.5703125 C-89.8378125 44.9103125 -90.1678125 44.2503125 -90.5078125 43.5703125 C-88.3672992 37.24050888 -85.64326287 31.93544531 -80.5078125 27.5703125 C-76.91312992 24.06564542 -76.91312992 24.06564542 -73.8203125 20.1328125 C-68.8395192 14.61355506 -62.40150786 11.71145881 -55.3828125 9.5703125 C-51.50436768 8.38112013 -48.65280461 7.1970903 -45.5078125 4.6328125 C-32.95069733 -5.39756608 -14.47145642 -7.17423477 0 0 Z M30.4921875 2.5703125 C29.5021875 3.5603125 28.5121875 4.5503125 27.4921875 5.5703125 C28.8121875 5.9003125 30.1321875 6.2303125 31.4921875 6.5703125 C32.1521875 5.5803125 32.8121875 4.5903125 33.4921875 3.5703125 C32.5021875 3.2403125 31.5121875 2.9103125 30.4921875 2.5703125 Z M24.4921875 7.5703125 C21.75731973 9.30818815 21.75731973 9.30818815 19.4921875 11.5703125 C19.4921875 12.2303125 19.4921875 12.8903125 19.4921875 13.5703125 C22.86722419 12.3844888 25.13941481 11.29457561 27.4921875 8.5703125 C26.5021875 8.2403125 25.5121875 7.9103125 24.4921875 7.5703125 Z M-21.5078125 10.5703125 C-18.62142165 12.49457307 -15.68932868 14.25659549 -12.6953125 16.0078125 C-11.67824219 16.60464844 -10.66117188 17.20148437 -9.61328125 17.81640625 C-6.62223953 19.50568642 -3.59346297 21.06207976 -0.5078125 22.5703125 C-1.07155137 19.09768107 -2.11632217 17.65714185 -4.8203125 15.4453125 C-5.41457031 14.94773437 -6.00882813 14.45015625 -6.62109375 13.9375 C-10.23814839 11.31644591 -12.7608529 10.31304898 -17.2578125 10.4453125 C-18.45664063 10.47238281 -18.45664063 10.47238281 -19.6796875 10.5 C-20.58460938 10.53480469 -20.58460938 10.53480469 -21.5078125 10.5703125 Z M29.4921875 11.5703125 C28.84894531 12.26511719 28.20570313 12.95992187 27.54296875 13.67578125 C23.96427573 17.25447427 19.83332764 20.01739269 15.6796875 22.8828125 C14.49729492 23.70749023 14.49729492 23.70749023 13.29101562 24.54882812 C11.36116812 25.89387336 9.42822549 27.23420057 7.4921875 28.5703125 C14.24359369 34.15365533 22.12678074 38.93406889 31.1796875 38.3203125 C33.99173899 37.6836216 36.09441393 37.13808753 38.4921875 35.5703125 C40.00576615 32.5431552 40.02549298 29.84205172 39.4921875 26.5703125 C37.23741965 20.56383549 34.3639402 15.74610053 29.4921875 11.5703125 Z " fill="#B98A30" transform="translate(172.5078125,17.4296875)"/>
<path d="M0 0 C1.31726074 0.00858032 1.31726074 0.00858032 2.66113281 0.01733398 C13.20826806 0.30577774 20.98269327 3.72413289 28.82421875 10.75390625 C30.25 12.5 30.25 12.5 31.25 16.5 C27.95 19.14 24.65 21.78 21.25 24.5 C17.32842028 22.53921014 14.59834467 20.29028723 11.25 17.5 C7.84847719 15.36571118 4.91265711 15.1868464 0.9375 15 C-2.66044743 14.82968296 -5.70316338 14.51358048 -9.171875 13.5078125 C-13.07606671 12.40816025 -16.64216047 12.08979679 -20.6875 11.875 C-21.37134766 11.83632813 -22.05519531 11.79765625 -22.75976562 11.7578125 C-24.42279513 11.66477588 -26.08635847 11.58136213 -27.75 11.5 C-27.75 10.84 -27.75 10.18 -27.75 9.5 C-25.84375 8.09765625 -25.84375 8.09765625 -23.25 6.5625 C-22.4146875 6.05847656 -21.579375 5.55445313 -20.71875 5.03515625 C-13.73933149 1.42606221 -7.88319952 -0.05976706 0 0 Z " fill="#213547" transform="translate(152.75,13.5)"/>
<path d="M0 0 C1.875 1.125 1.875 1.125 3 3 C3.5 5.9375 3.5 5.9375 3 9 C0.5 11.375 0.5 11.375 -2 13 C-1.52949219 13.556875 -1.05898437 14.11375 -0.57421875 14.6875 C5.38024234 21.98572147 8.2994366 27.64610095 8.3984375 37.1171875 C8 39 8 39 5 41 C4.01 41 3.02 41 2 41 C2.08701172 39.98292969 2.08701172 39.98292969 2.17578125 38.9453125 C2.5327019 31.5825494 1.30780346 26.07627015 -3 20 C-5.06549334 18.24621525 -5.06549334 18.24621525 -7 17 C-7.86625 17.78375 -8.7325 18.5675 -9.625 19.375 C-12.56438009 21.8268052 -15.22276294 23.14153703 -19 24 C-19.66 23.67 -20.32 23.34 -21 23 C-21 23.99 -21 24.98 -21 26 C-22.65 26.33 -24.3 26.66 -26 27 C-26.33 27.99 -26.66 28.98 -27 30 C-28.98 30 -30.96 30 -33 30 C-33 29.34 -33 28.68 -33 28 C-33.66 27.67 -34.32 27.34 -35 27 C-31.44299231 18.99673269 -24.69507698 14.26950926 -18 9 C-16.94119726 8.13958003 -15.88260443 7.27890169 -14.82421875 6.41796875 C-13.78910156 5.59941406 -12.75398438 4.78085937 -11.6875 3.9375 C-10.74261719 3.18339844 -9.79773438 2.42929687 -8.82421875 1.65234375 C-5.56139332 -0.2566122 -3.7190278 -0.42608381 0 0 Z M-6 6 C-6.99 6.99 -7.98 7.98 -9 9 C-7.68 9.33 -6.36 9.66 -5 10 C-4.34 9.01 -3.68 8.02 -3 7 C-3.99 6.67 -4.98 6.34 -6 6 Z M-12 11 C-14.73486777 12.73787565 -14.73486777 12.73787565 -17 15 C-17 15.66 -17 16.32 -17 17 C-13.62496331 15.8141763 -11.35277269 14.72426311 -9 12 C-9.99 11.67 -10.98 11.34 -12 11 Z " fill="#BE9030" transform="translate(209,14)"/>
<path d="M0 0 C2.5 2.25 2.5 2.25 5 5 C5 6.32 5 7.64 5 9 C2.95231628 10.68099976 2.95231628 10.68099976 0.13745117 12.32177734 C-0.87096832 12.92753601 -1.87938782 13.53329468 -2.91836548 14.15740967 C-3.93530487 14.76546448 -4.95224426 15.37351929 -6 16 C-7.69845323 17.1125602 -9.38860889 18.23791924 -11.0690918 19.37744141 C-11.90333176 19.94137604 -12.73757172 20.50531067 -13.59709167 21.08633423 C-14.45579361 21.66885956 -15.31449554 22.25138489 -16.19921875 22.8515625 C-17.11911087 23.4734848 -18.03900299 24.0954071 -18.98677063 24.73617554 C-21.88797362 26.69770274 -24.78789184 28.66111618 -27.6875 30.625 C-31.52364795 33.22297222 -35.3610702 35.81904709 -39.19921875 38.4140625 C-40.06399338 39.00063629 -40.92876801 39.58721008 -41.81974792 40.19155884 C-45.68379487 42.80401381 -49.56058437 45.39449048 -53.48754883 47.91162109 C-54.11840897 48.3162558 -54.7492691 48.7208905 -55.39924622 49.13778687 C-57 50 -57 50 -59 50 C-58.61402985 47.20171644 -58.19863427 46.1794116 -56.0625 44.25 C-54 43 -54 43 -52 43 C-51.67 42.01 -51.34 41.02 -51 40 C-49.13962035 38.45063474 -47.21182173 36.98123205 -45.25 35.5625 C-37.88025299 30.5325435 -37.88025299 30.5325435 -32 24 C-30.40625 22.67578125 -30.40625 22.67578125 -28.5 21.3125 C-24.3185859 18.2866767 -20.40331643 15.0028543 -16.4921875 11.63671875 C-13.59419533 9.73349191 -11.4381014 9.2523814 -8 9 C-7.34 9.33 -6.68 9.66 -6 10 C-5.9071875 8.63875 -5.9071875 8.63875 -5.8125 7.25 C-4.81553956 3.26215824 -3.35111834 2.23407889 0 0 Z " fill="#C38F1C" transform="translate(167,44)"/>
<path d="M0 0 C10.8836032 0.46324733 22.77350161 1.47868477 31.89453125 8.01953125 C32.38953125 9.50453125 32.38953125 9.50453125 32.89453125 11.01953125 C30.17279538 12.07869733 29.04525587 12.07206321 26.23828125 11.09375 C25.29984375 10.63613281 24.36140625 10.17851563 23.39453125 9.70703125 C22.45609375 9.25714844 21.51765625 8.80726562 20.55078125 8.34375 C19.01461374 7.57792531 17.48698129 6.79323048 15.98632812 5.95996094 C9.16184826 2.89181243 -1.56920822 4.1432897 -8.63671875 5.89453125 C-11.61333581 7.08517808 -14.3251264 8.42504097 -17.10546875 10.01953125 C-18.08257812 10.57382812 -19.0596875 11.128125 -20.06640625 11.69921875 C-27.40963794 16.1287821 -32.73659884 20.57185475 -37.10546875 28.01953125 C-38.32884554 29.96069229 -39.55809106 31.8981662 -40.79296875 33.83203125 C-41.41558594 34.80785156 -42.03820312 35.78367188 -42.6796875 36.7890625 C-43.15019531 37.52511719 -43.62070313 38.26117188 -44.10546875 39.01953125 C-44.43546875 38.35953125 -44.76546875 37.69953125 -45.10546875 37.01953125 C-42.96495545 30.68972763 -40.24091912 25.38466406 -35.10546875 21.01953125 C-31.51078617 17.51486417 -31.51078617 17.51486417 -28.41796875 13.58203125 C-22.58462822 7.11805932 -14.63700179 4.24497498 -6.4765625 1.78125 C-0.95045855 0.00597773 -0.95045855 0.00597773 0 0 Z " fill="#BC8A2D" transform="translate(127.10546875,23.98046875)"/>
<path d="M0 0 C2.87029869 1.79393668 4.49131638 2.98263276 6 6 C6.64507919 11.20671061 6.9173523 14.81709835 3.625 19.0625 C-0.52238563 22.12366559 -2.71369204 22.27283006 -7.734375 21.625 C-10 21 -10 21 -13.0625 18.4375 C-15.37001955 14.3435137 -16.01215345 11.58660529 -15 7 C-11.17841399 -0.00624102 -7.65219085 -0.99121643 0 0 Z M-8.875 5 C-10.68864437 8.22425666 -10.79701903 11.40968997 -10 15 C-7.94572012 17.3160651 -7.94572012 17.3160651 -5 18 C-1.9683961 17.36547825 -0.54197783 16.68978997 1.375 14.25 C2.22257919 11.1987149 1.7930894 9.04017602 1 6 C-0.87938172 3.70172688 -0.87938172 3.70172688 -3.9375 3.6875 C-6.89963083 3.79450942 -6.89963083 3.79450942 -8.875 5 Z " fill="#282577" transform="translate(209,65)"/>
<path d="M0 0 C10.07203115 -0.60674886 10.07203115 -0.60674886 14.25 2.125 C16 5 16 5 15.8125 8.3125 C15.544375 9.199375 15.27625 10.08625 15 11 C14.01 11.33 13.02 11.66 12 12 C13.32 14.97 14.64 17.94 16 21 C14.02 21 12.04 21 10 21 C9.54625 19.865625 9.0925 18.73125 8.625 17.5625 C7.42904194 13.95278308 7.42904194 13.95278308 5 13 C5 15.64 5 18.28 5 21 C3.35 21 1.7 21 0 21 C0 14.07 0 7.14 0 0 Z M5 4 C5 5.98 5 7.96 5 10 C6.65 9.67 8.3 9.34 10 9 C10.59070014 7.05396726 10.59070014 7.05396726 11 5 C9.93354885 3.70366379 9.93354885 3.70366379 7.4375 3.9375 C6.633125 3.958125 5.82875 3.97875 5 4 Z " fill="#141353" transform="translate(176,65)"/>
<path d="M0 0 C11.36012692 -0.49391856 11.36012692 -0.49391856 14.36328125 1.82421875 C16 4 16 4 16.4375 7.0625 C16 10 16 10 15 11.875 C11.74686316 13.70488947 8.68609891 13.18128355 5 13 C5 15.64 5 18.28 5 21 C3.35 21 1.7 21 0 21 C0 14.07 0 7.14 0 0 Z M5 4 C5 5.98 5 7.96 5 10 C6.98 9.67 8.96 9.34 11 9 C11 7.35 11 5.7 11 4 C9.02 4 7.04 4 5 4 Z " fill="#232372" transform="translate(158,65)"/>
<path d="M0 0 C0.495 0.99 0.495 0.99 1 2 C0.0625 4.625 0.0625 4.625 -1 7 C-2.65 7 -4.3 7 -6 7 C-6 7.66 -6 8.32 -6 9 C-4.02 9 -2.04 9 0 9 C-3.01986887 12.23547693 -6.20357832 14.61768649 -9.90234375 17.0390625 C-10.46192276 17.40599213 -11.02150177 17.77292175 -11.59803772 18.15097046 C-12.7756432 18.92137769 -13.95482709 19.6893771 -15.13549805 20.45507812 C-16.93285229 21.62198254 -18.72350367 22.79867161 -20.51367188 23.9765625 C-21.66367438 24.72715748 -22.81405272 25.47717702 -23.96484375 26.2265625 C-25.0024585 26.90283691 -26.04007324 27.57911133 -27.10913086 28.27587891 C-29.6996786 29.82088762 -32.16858732 30.98075656 -35 32 C-34.61402985 29.20171644 -34.19863427 28.1794116 -32.0625 26.25 C-30 25 -30 25 -28 25 C-27.67 24.01 -27.34 23.02 -27 22 C-25.13962035 20.45063474 -23.21182173 18.98123205 -21.25 17.5625 C-13.88025299 12.5325435 -13.88025299 12.5325435 -8 6 C-6.65979838 4.89392999 -5.28130461 3.83320496 -3.875 2.8125 C-3.15054688 2.28269531 -2.42609375 1.75289062 -1.6796875 1.20703125 C-1.12539062 0.80871094 -0.57109375 0.41039062 0 0 Z " fill="#B58B36" transform="translate(143,62)"/>
<path d="M0 0 C0.33 0 0.66 0 1 0 C1.78530425 8.98737084 1.78530425 8.98737084 -1.375 13.0625 C-5.52238563 16.12366559 -7.71369204 16.27283006 -12.734375 15.625 C-15 15 -15 15 -18.0625 12.4375 C-20.49984335 8.11318116 -20.42014927 5.87373151 -20 1 C-19.67 1 -19.34 1 -19 1 C-18.67 2.98 -18.34 4.96 -18 7 C-17.01 6.01 -16.02 5.02 -15 4 C-14.7525 4.969375 -14.505 5.93875 -14.25 6.9375 C-13.35259966 10.06847068 -13.35259966 10.06847068 -11.125 11 C-8.5300822 11 -7.16023032 10.41532331 -5 9 C-4.67 8.34 -4.34 7.68 -4 7 C-2 8 -2 8 -1 9 C-0.67 6.03 -0.34 3.06 0 0 Z " fill="#090829" transform="translate(214,71)"/>
<path d="M0 0 C-0.99 1.32 -1.98 2.64 -3 4 C-3.66 3.67 -4.32 3.34 -5 3 C-5 3.99 -5 4.98 -5 6 C-6.65 6.33 -8.3 6.66 -10 7 C-10.33 7.99 -10.66 8.98 -11 10 C-12.98 10 -14.96 10 -17 10 C-17 9.34 -17 8.68 -17 8 C-17.66 7.67 -18.32 7.34 -19 7 C-16 1 -16 1 -13.5625 -0.1875 C-8.8540433 -1.26135855 -4.73760642 -0.69285153 0 0 Z " fill="#C38E17" transform="translate(193,34)"/>
<path d="M0 0 C10.15664462 -0.61184606 10.15664462 -0.61184606 14.1875 2.3125 C16 5 16 5 16 8 C14.68 7.67 13.36 7.34 12 7 C12 6.34 12 5.68 12 5 C9.69 5 7.38 5 5 5 C4.01 7.97 3.02 10.94 2 14 C1.34 13.67 0.68 13.34 0 13 C0 8.71 0 4.42 0 0 Z " fill="#191C67" transform="translate(176,65)"/>
<path d="M0 0 C2 4 2 4 2 6 C3.98 6 5.96 6 8 6 C8 5.34 8 4.68 8 4 C8.99 4 9.98 4 11 4 C11.33 2.68 11.66 1.36 12 0 C12.33 0.99 12.66 1.98 13 3 C13.66 3.33 14.32 3.66 15 4 C14.34 5.32 13.68 6.64 13 8 C10.36 8 7.72 8 5 8 C5 10.64 5 13.28 5 16 C3.35 16 1.7 16 0 16 C0 10.72 0 5.44 0 0 Z " fill="#121350" transform="translate(158,70)"/>
<path d="M0 0 C0.99 0 1.98 0 3 0 C3 1.32 3 2.64 3 4 C4.0725 3.29875 5.145 2.5975 6.25 1.875 C8.17578125 0.7578125 8.17578125 0.7578125 10 0 C12.4375 0.75 12.4375 0.75 14 2 C12.60364382 5.37452744 11.1393647 7.11638118 8 9 C5.25 9.6875 5.25 9.6875 3 10 C2.67 9.34 2.34 8.68 2 8 C-0.02463255 7.34786708 -0.02463255 7.34786708 -2 7 C-1.125 1.125 -1.125 1.125 0 0 Z " fill="#C4901D" transform="translate(188,27)"/>
<path d="M0 0 C0.66 0.66 1.32 1.32 2 2 C1.20335937 2.65355469 1.20335937 2.65355469 0.390625 3.3203125 C-3.87031668 6.91256625 -7.12224821 10.17280344 -10 15 C-11.24642642 16.96060976 -12.49671166 18.9187695 -13.75 20.875 C-14.83396706 22.58293129 -15.91751309 24.29113021 -17 26 C-17.33 25.34 -17.66 24.68 -18 24 C-15.8594867 17.67019638 -13.13545037 12.36513281 -8 8 C-7.13375 7.13375 -6.2675 6.2675 -5.375 5.375 C-3.58333333 3.58333333 -1.79166667 1.79166667 0 0 Z " fill="#A08973" transform="translate(100,37)"/>
<path d="M0 0 C7.21625751 0.97583482 14.41907373 1.65205446 21.6875 2.125 C21.6875 2.785 21.6875 3.445 21.6875 4.125 C19.9584226 4.15225341 18.22921824 4.17150987 16.5 4.1875 C15.05560547 4.20490234 15.05560547 4.20490234 13.58203125 4.22265625 C10.81039768 4.12914635 8.39882002 3.67371953 5.6875 3.125 C3.0806873 2.90618981 0.48529811 2.71487147 -2.125 2.5625 C-3.16430664 2.49772461 -3.16430664 2.49772461 -4.22460938 2.43164062 C-5.92038686 2.32638547 -7.61642052 2.22527137 -9.3125 2.125 C-9.3125 1.465 -9.3125 0.805 -9.3125 0.125 C-6.24925266 -1.40662367 -3.28269339 -0.47124008 0 0 Z " fill="#36342C" transform="translate(134.3125,22.875)"/>
<path d="M0 0 C0.33 0 0.66 0 1 0 C1.33 1.98 1.66 3.96 2 6 C2.99 5.01 3.98 4.02 5 3 C5.20625 3.928125 5.4125 4.85625 5.625 5.8125 C6.74446192 9.26004095 6.74446192 9.26004095 10.125 10.875 C11.07375 11.24625 12.0225 11.6175 13 12 C11.4375 13.1875 11.4375 13.1875 9 14 C4.68439202 12.58626635 2.54827424 11.82241136 0 8 C-0.25760279 5.30547479 -0.08900053 2.71451625 0 0 Z " fill="#131242" transform="translate(194,72)"/>
<path d="M0 0 C4.455 0.99 4.455 0.99 9 2 C9 2.33 9 2.66 9 3 C6.69 3.33 4.38 3.66 2 4 C1.01 6.97 0.02 9.94 -1 13 C-1.66 12.67 -2.32 12.34 -3 12 C-3.36923077 4.61538462 -3.36923077 4.61538462 -1.5 1.5 C-1.005 1.005 -0.51 0.51 0 0 Z " fill="#16155C" transform="translate(198,66)"/>
<path d="M0 0 C5.94 3.465 5.94 3.465 12 7 C10.68 7.33 9.36 7.66 8 8 C7.67 8.66 7.34 9.32 7 10 C4.36 8.35 1.72 6.7 -1 5 C-0.67 3.35 -0.34 1.7 0 0 Z " fill="#B68831" transform="translate(159,32)"/>
<path d="M0 0 C-2.36106368 3.54159553 -4.20999741 4.34260691 -8 6.1875 C-9.0725 6.71730469 -10.145 7.24710938 -11.25 7.79296875 C-14 9 -14 9 -16 9 C-16 8.01 -16 7.02 -16 6 C-11.29006657 2.17434261 -6.22635418 -0.98310855 0 0 Z " fill="#B28941" transform="translate(117,29)"/>
<path d="M0 0 C0 0.33 0 0.66 0 1 C2.31 1.33 4.62 1.66 7 2 C7 2.33 7 2.66 7 3 C5.48019531 3.07347656 5.48019531 3.07347656 3.9296875 3.1484375 C2.57810089 3.22352564 1.22653962 3.29907081 -0.125 3.375 C-0.79015625 3.4059375 -1.4553125 3.436875 -2.140625 3.46875 C-6.39821262 3.71919633 -10.02085783 4.47528197 -14 6 C-14.66 5.01 -15.32 4.02 -16 3 C-5.62642369 -1.77676538 -5.62642369 -1.77676538 0 0 Z " fill="#9D7A3B" transform="translate(130,25)"/>
<path d="M0 0 C1.93627769 -0.10807131 3.87427756 -0.1856225 5.8125 -0.25 C7.43091797 -0.31960937 7.43091797 -0.31960937 9.08203125 -0.390625 C12 0 12 0 13.88671875 1.828125 C15 4 15 4 15 7 C13.68 6.67 12.36 6.34 11 6 C11 5.34 11 4.68 11 4 C7.37 3.34 3.74 2.68 0 2 C0 1.34 0 0.68 0 0 Z " fill="#1D1C6A" transform="translate(177,66)"/>
<path d="M0 0 C5.28 0.99 10.56 1.98 16 3 C16 3.66 16 4.32 16 5 C13.72975032 5.08097324 11.45867925 5.13917704 9.1875 5.1875 C7.29064453 5.23970703 7.29064453 5.23970703 5.35546875 5.29296875 C2 5 2 5 0.05078125 3.48828125 C-0.29597656 2.99714844 -0.64273438 2.50601563 -1 2 C-0.67 1.34 -0.34 0.68 0 0 Z " fill="#C28A23" transform="translate(190,54)"/>
<path d="M0 0 C1.32 0 2.64 0 4 0 C2.43306074 3.84612364 -0.05564903 6.12412231 -3 9 C-3.86426644 10.05430093 -4.71851745 11.11689251 -5.5625 12.1875 C-7.72122523 14.67833681 -8.97388196 15.87921554 -12 17 C-12 16.01 -12 15.02 -12 14 C-11.01 13.67 -10.02 13.34 -9 13 C-8.66601183 11.66683055 -8.3327576 10.33347714 -8 9 C-6.40625 7.40234375 -6.40625 7.40234375 -4.5 5.9375 C-1.83347234 3.8774981 -1.10366566 3.31099698 0 0 Z " fill="#3A3839" transform="translate(97,35)"/>
<path d="M0 0 C-0.99 0.33 -1.98 0.66 -3 1 C-3 1.66 -3 2.32 -3 3 C-3.9075 2.690625 -4.815 2.38125 -5.75 2.0625 C-11.04506536 0.52310987 -16.52225363 0.34179698 -22 0 C-22 -0.33 -22 -0.66 -22 -1 C-14.58401239 -2.9775967 -7.18188138 -2.4980457 0 0 Z " fill="#AE8A41" transform="translate(147,27)"/>
<path d="M0 0 C-5.28 3.63 -10.56 7.26 -16 11 C-16.66 10.67 -17.32 10.34 -18 10 C-17.67 8.68 -17.34 7.36 -17 6 C-15.68 6 -14.36 6 -13 6 C-13 5.34 -13 4.68 -13 4 C-11.68 4 -10.36 4 -9 4 C-9 3.34 -9 2.68 -9 2 C-3.375 -1.125 -3.375 -1.125 0 0 Z " fill="#B38632" transform="translate(170,54)"/>
<path d="M0 0 C-1.51167706 4.23269578 -4.30552799 5.66268097 -8 8 C-9.79394446 9.62351109 -9.79394446 9.62351109 -11 11 C-9.68 11.33 -8.36 11.66 -7 12 C-7.33 12.99 -7.66 13.98 -8 15 C-10.475 14.01 -10.475 14.01 -13 13 C-12.42400084 9.46616733 -11.1890605 7.83087229 -8.625 5.375 C-8.01914063 4.78460938 -7.41328125 4.19421875 -6.7890625 3.5859375 C-2.74384236 0 -2.74384236 0 0 0 Z " fill="#35373B" transform="translate(105,37)"/>
<path d="M0 0 C0.66 0.33 1.32 0.66 2 1 C1.34 2.98 0.68 4.96 0 7 C-0.33 5.68 -0.66 4.36 -1 3 C-1.99 3.33 -2.98 3.66 -4 4 C-4.226875 4.804375 -4.45375 5.60875 -4.6875 6.4375 C-6 9 -6 9 -7.90234375 9.7734375 C-9.91719787 10.26210159 -11.95861458 10.63781872 -14 11 C-4.90140845 1.63380282 -4.90140845 1.63380282 0 0 Z " fill="#B48C2E" transform="translate(192,24)"/>
<path d="M0 0 C2.4375 0.75 2.4375 0.75 5 2 C6.17031335 5.0321755 5.98366641 7.5678538 5.5625 10.75 C5.46066406 11.54921875 5.35882813 12.3484375 5.25390625 13.171875 C5.12822266 14.07679687 5.12822266 14.07679687 5 15 C2.70986347 11.5647952 2.82157027 10.014669 3 6 C2.01 5.67 1.02 5.34 0 5 C0 3.35 0 1.7 0 0 Z " fill="#C29025" transform="translate(210,36)"/>
<path d="M0 0 C1.65 0 3.3 0 5 0 C5 2.64 5 5.28 5 8 C3.35 8 1.7 8 0 8 C0 5.36 0 2.72 0 0 Z " fill="#121036" transform="translate(176,78)"/>
<path d="M0 0 C5.61 0 11.22 0 17 0 C18 4 18 4 17.0625 6.25 C16.5365625 7.11625 16.5365625 7.11625 16 8 C15.67 7.01 15.34 6.02 15 5 C14.34 5 13.68 5 13 5 C12.67 4.01 12.34 3.02 12 2 C8.04 1.67 4.08 1.34 0 1 C0 0.67 0 0.34 0 0 Z " fill="#222E3E" transform="translate(88,14)"/>
<path d="M0 0 C1.32 0.66 2.64 1.32 4 2 C2.61122646 5.35620271 1.08322035 7.07298728 -2 9 C-2.66 9 -3.32 9 -4 9 C-4 8.01 -4 7.02 -4 6 C-3.34 6 -2.68 6 -2 6 C-1.855625 5.195625 -1.71125 4.39125 -1.5625 3.5625 C-1 1 -1 1 0 0 Z " fill="#BB8A32" transform="translate(198,27)"/>
<path d="M0 0 C0.66 0 1.32 0 2 0 C2 0.66 2 1.32 2 2 C1.34 2 0.68 2 0 2 C0.33 2.99 0.66 3.98 1 5 C-0.12073862 5.83905565 -1.24674547 6.67107831 -2.375 7.5 C-3.00148438 7.9640625 -3.62796875 8.428125 -4.2734375 8.90625 C-6 10 -6 10 -8 10 C-7.61402985 7.20171644 -7.19863427 6.1794116 -5.0625 4.25 C-3 3 -3 3 -1 3 C-0.67 2.01 -0.34 1.02 0 0 Z " fill="#A9833F" transform="translate(116,84)"/>
<path d="M0 0 C0.66 0.33 1.32 0.66 2 1 C2.125 8.625 2.125 8.625 1 12 C0.34 11.67 -0.32 11.34 -1 11 C-1.5625 8.6875 -1.5625 8.6875 -2 6 C-2.32483418 4.66457061 -2.6550855 3.33038449 -3 2 C-2.01 2 -1.02 2 0 2 C0 1.34 0 0.68 0 0 Z " fill="#18165E" transform="translate(212,68)"/>
<path d="M0 0 C0.66 0.33 1.32 0.66 2 1 C0.75023244 4.65316671 0.32901247 5.78065836 -3 8 C-5.1875 7.625 -5.1875 7.625 -7 7 C-6 4 -6 4 -3 2 C-2.01 2 -1.02 2 0 2 C0 1.34 0 0.68 0 0 Z " fill="#C08F28" transform="translate(134,72)"/>
<path d="M0 0 C0.33 0.66 0.66 1.32 1 2 C-2.625 7.875 -2.625 7.875 -6 9 C-6.33 8.67 -6.66 8.34 -7 8 C-8.67884238 7.6068352 -10.36850045 7.25914548 -12.0625 6.9375 C-12.98160156 6.76089844 -13.90070313 6.58429688 -14.84765625 6.40234375 C-15.55792969 6.26957031 -16.26820312 6.13679688 -17 6 C-16.67 5.34 -16.34 4.68 -16 4 C-15.34 4.33 -14.68 4.66 -14 5 C-7.65073004 5.46808922 -7.65073004 5.46808922 -2 3 C-1.34 2.01 -0.68 1.02 0 0 Z " fill="#1F2C3B" transform="translate(101,69)"/>
<path d="M0 0 C-6.95184498 2.31728166 -14.85769031 0.92158835 -22 0 C-22 -0.33 -22 -0.66 -22 -1 C-19.0837882 -1.22201613 -16.16792256 -1.42808498 -13.25 -1.625 C-12.425 -1.68945312 -11.6 -1.75390625 -10.75 -1.8203125 C-9.95078125 -1.871875 -9.1515625 -1.9234375 -8.328125 -1.9765625 C-7.5949707 -2.02893066 -6.86181641 -2.08129883 -6.10644531 -2.13525391 C-3.65224559 -1.97767085 -2.11146787 -1.22264839 0 0 Z " fill="#303C4C" transform="translate(37,30)"/>
<path d="M0 0 C0.33 0 0.66 0 1 0 C1.08090971 1.62418745 1.13914995 3.24951745 1.1875 4.875 C1.22230469 5.77992187 1.25710937 6.68484375 1.29296875 7.6171875 C1.19628906 8.40351562 1.09960938 9.18984375 1 10 C-2.22791555 12.1519437 -3.28400809 12.20086443 -7 12 C-6.01 10.35 -5.02 8.7 -4 7 C-2 8 -2 8 -1 9 C-0.67 6.03 -0.34 3.06 0 0 Z " fill="#11103B" transform="translate(214,71)"/>
<path d="M0 0 C0.66 0 1.32 0 2 0 C5.98072805 6.15203426 5.98072805 6.15203426 6.0625 9.75 C4.65505829 12.73046481 2.91212588 13.58127201 0 15 C0.33 14.01 0.66 13.02 1 12 C1.66 12 2.32 12 3 12 C2.49202991 7.6822542 1.80317221 3.96697886 0 0 Z " fill="#353B3E" transform="translate(128,60)"/>
<path d="M0 0 C0.99 0.66 1.98 1.32 3 2 C2.3503125 2.99 2.3503125 2.99 1.6875 4 C-0.32464663 7.57714956 -1.62428695 11.13490142 -3 15 C-3.97591583 11.61682513 -3.85856655 9.4342662 -3 6 C-2.34 6 -1.68 6 -1 6 C-0.67 4.02 -0.34 2.04 0 0 Z " fill="#2F3947" transform="translate(80,52)"/>
<path d="M0 0 C5.32011893 -0.34886026 5.32011893 -0.34886026 8 0 C10 1.875 10 1.875 11 4 C11 4.66 11 5.32 11 6 C10.01 6 9.02 6 8 6 C7.67 5.01 7.34 4.02 7 3 C4.36 2.67 1.72 2.34 -1 2 C-0.67 1.34 -0.34 0.68 0 0 Z " fill="#171873" transform="translate(162,67)"/>
<path d="M0 0 C4.8 3.44615385 4.8 3.44615385 5.8125 6.25 C5.874375 6.8275 5.93625 7.405 6 8 C5.01 8.66 4.02 9.32 3 10 C3 8.35 3 6.7 3 5 C1.35 5 -0.3 5 -2 5 C-1.34 4.67 -0.68 4.34 0 4 C0 2.68 0 1.36 0 0 Z " fill="#2D3540" transform="translate(178,22)"/>
<path d="M0 0 C1.89213369 2.38573379 3.02391783 4.07175348 4 7 C2.02 7 0.04 7 -2 7 C-2.66 5.02 -3.32 3.04 -4 1 C-3.34 1 -2.68 1 -2 1 C-1.67 1.66 -1.34 2.32 -1 3 C-0.67 2.01 -0.34 1.02 0 0 Z " fill="#100F31" transform="translate(188,79)"/>
<path d="M0 0 C0.66 0.66 1.32 1.32 2 2 C1.45730469 2.45890625 0.91460937 2.9178125 0.35546875 3.390625 C-0.35996094 4.00421875 -1.07539062 4.6178125 -1.8125 5.25 C-2.52019531 5.85328125 -3.22789063 6.4565625 -3.95703125 7.078125 C-5.91889671 8.92370398 -7.45669625 10.79945332 -9 13 C-9 8.21647867 -8.16319494 7.4196702 -5 4 C-3.36643049 2.62631655 -1.7074998 1.28062485 0 0 Z " fill="#887559" transform="translate(100,37)"/>
<path d="M0 0 C1.0725 0.53625 2.145 1.0725 3.25 1.625 C1.6875 2.8125 1.6875 2.8125 -0.75 3.625 C-4.5 2.25 -4.5 2.25 -7.75 0.625 C-4.61227723 -1.75966931 -3.83407554 -1.4058277 0 0 Z " fill="#100E36" transform="translate(203.75,82.375)"/>
<path d="M0 0 C0.66 0 1.32 0 2 0 C2 2.64 2 5.28 2 8 C0.35 8 -1.3 8 -3 8 C-2.625 6.0625 -2.625 6.0625 -2 4 C-1.34 3.67 -0.68 3.34 0 3 C0 2.01 0 1.02 0 0 Z " fill="#0D0D2F" transform="translate(161,78)"/>
<path d="M0 0 C1.32 0.33 2.64 0.66 4 1 C4 1.66 4 2.32 4 3 C5.32 3.33 6.64 3.66 8 4 C7.34 4.66 6.68 5.32 6 6 C4 5.9375 4 5.9375 2 5 C0.75 2.4375 0.75 2.4375 0 0 Z " fill="#373C43" transform="translate(120,72)"/>
<path d="M0 0 C1.53202706 0.25195908 3.05257128 0.57596777 4.5625 0.9375 C5.38878906 1.13214844 6.21507812 1.32679687 7.06640625 1.52734375 C8.02353516 1.76130859 8.02353516 1.76130859 9 2 C9 2.33 9 2.66 9 3 C5.12315913 4.19287411 2.08378077 5 -2 5 C-1.125 1.125 -1.125 1.125 0 0 Z " fill="#19196B" transform="translate(198,66)"/>
<path d="M0 0 C0.66 0.33 1.32 0.66 2 1 C1.67 1.99 1.34 2.98 1 4 C1.99 4.33 2.98 4.66 4 5 C4 5.66 4 6.32 4 7 C2.02 7 0.04 7 -2 7 C-2 6.34 -2 5.68 -2 5 C-2.66 4.67 -3.32 4.34 -4 4 C-4 3.34 -4 2.68 -4 2 C-2.125 0.9375 -2.125 0.9375 0 0 Z " fill="#C9881C" transform="translate(178,37)"/>
<path d="M0 0 C1.32 0 2.64 0 4 0 C4 0.66 4 1.32 4 2 C5.32 2.66 6.64 3.32 8 4 C7.67 4.66 7.34 5.32 7 6 C4.69 5.01 2.38 4.02 0 3 C0 2.01 0 1.02 0 0 Z " fill="#C88C1E" transform="translate(175,46)"/>
<path d="M0 0 C1.98 0 3.96 0 6 0 C6.33 0.99 6.66 1.98 7 3 C4.625 4.5625 4.625 4.5625 2 6 C1.34 5.67 0.68 5.34 0 5 C0.66 3.68 1.32 2.36 2 1 C1.34 0.67 0.68 0.34 0 0 Z " fill="#3E3D39" transform="translate(135,28)"/>
<path d="M0 0 C6.625 -0.25 6.625 -0.25 10 2 C8.68 2 7.36 2 6 2 C6 2.66 6 3.32 6 4 C4.02 3.34 2.04 2.68 0 2 C0 1.34 0 0.68 0 0 Z " fill="#B88E39" transform="translate(144,28)"/>
<path d="M0 0 C-0.1875 1.8125 -0.1875 1.8125 -1 4 C-3.5625 5.75 -3.5625 5.75 -6 7 C-6.33 6.01 -6.66 5.02 -7 4 C-6.34 4 -5.68 4 -5 4 C-5 3.34 -5 2.68 -5 2 C-2 0 -2 0 0 0 Z " fill="#C28F2D" transform="translate(123,82)"/>
<path d="M0 0 C3.63 0 7.26 0 11 0 C10.67 0.99 10.34 1.98 10 3 C9.34 2.67 8.68 2.34 8 2 C7.01 2.33 6.02 2.66 5 3 C2.3125 2.5625 2.3125 2.5625 0 2 C0 1.34 0 0.68 0 0 Z " fill="#242183" transform="translate(177,66)"/>
<path d="M0 0 C1.98 0 3.96 0 6 0 C6.33 0.99 6.66 1.98 7 3 C6.34 3 5.68 3 5 3 C5 2.34 5 1.68 5 1 C4.01 1.495 4.01 1.495 3 2 C3 2.66 3 3.32 3 4 C3.66 4 4.32 4 5 4 C4.67 4.99 4.34 5.98 4 7 C2 5.1875 2 5.1875 0 3 C0 2.01 0 1.02 0 0 Z " fill="#BB7F17" transform="translate(167,40)"/>
<path d="M0 0 C0.33 0.66 0.66 1.32 1 2 C0.0625 4.625 0.0625 4.625 -1 7 C-2.65 6.67 -4.3 6.34 -6 6 C-4 4 -2 2 0 0 Z " fill="#BC9136" transform="translate(143,62)"/>
<path d="M0 0 C1.32 0.33 2.64 0.66 4 1 C4 2.98 4 4.96 4 7 C2.02 5.68 0.04 4.36 -2 3 C-1.34 2.01 -0.68 1.02 0 0 Z " fill="#BF8F3D" transform="translate(200,23)"/>
<path d="M0 0 C0.66 0.33 1.32 0.66 2 1 C0.5625 3.0625 0.5625 3.0625 -2 5 C-5.07583023 5.05823431 -7.98735648 4.59222907 -11 4 C-11 3.67 -11 3.34 -11 3 C-10.28972656 2.86722656 -9.57945313 2.73445313 -8.84765625 2.59765625 C-7.92855469 2.42105469 -7.00945313 2.24445313 -6.0625 2.0625 C-4.68771484 1.80146484 -4.68771484 1.80146484 -3.28515625 1.53515625 C-1.04710156 1.22285012 -1.04710156 1.22285012 0 0 Z " fill="#202D3A" transform="translate(43,72)"/>
<path d="M0 0 C0.598125 0.20625 1.19625 0.4125 1.8125 0.625 C-0.36174117 3.12537734 -1.91795798 4.06128586 -5.1875 4.625 C-5.1875 3.635 -5.1875 2.645 -5.1875 1.625 C-2.1875 -0.375 -2.1875 -0.375 0 0 Z " fill="#B58653" transform="translate(106.1875,33.375)"/>
<path d="M0 0 C0.99 0.33 1.98 0.66 3 1 C3.6875 3.0625 3.6875 3.0625 4 5 C2.68 5.33 1.36 5.66 0 6 C0 4 0 2 0 0 Z " fill="#C38F0D" transform="translate(179,36)"/>
<path d="M0 0 C1.98 0.66 3.96 1.32 6 2 C4.68 3.32 3.36 4.64 2 6 C1.34 5.34 0.68 4.68 0 4 C0 3.67 0 3.34 0 3 C-0.66 2.67 -1.32 2.34 -2 2 C-1.34 1.34 -0.68 0.68 0 0 Z " fill="#C49744" transform="translate(192,22)"/>
<path d="M0 0 C0.33 0 0.66 0 1 0 C1 1.98 1 3.96 1 6 C1.66 6 2.32 6 3 6 C3.33 5.34 3.66 4.68 4 4 C4 4.99 4 5.98 4 7 C2.02 7 0.04 7 -2 7 C-1.34 4.69 -0.68 2.38 0 0 Z " fill="#222458" transform="translate(162,69)"/>
<path d="M0 0 C0.66 0.66 1.32 1.32 2 2 C1 5 1 5 -2 7 C-2.6875 5.1875 -2.6875 5.1875 -3 3 C-1.5625 1.25 -1.5625 1.25 0 0 Z " fill="#172736" transform="translate(63,70)"/>
<path d="M0 0 C3 1 3 1 4 3 C4.039992 4.99960012 4.04346799 7.00047242 4 9 C3.01 8.34 2.02 7.68 1 7 C1.66 7 2.32 7 3 7 C2.505 6.21625 2.01 5.4325 1.5 4.625 C0 2 0 2 0 0 Z " fill="#1F1F67" transform="translate(170,66)"/>
<path d="M0 0 C1.98 1.65 3.96 3.3 6 5 C3.3333581 6.33332095 1.83319697 5.67102033 -1 5 C-0.67 3.35 -0.34 1.7 0 0 Z " fill="#1D2A38" transform="translate(108,39)"/>
<path d="" fill="#FFFFFF" transform="translate(0,0)"/>
<path d="" fill="#FFFFFF" transform="translate(0,0)"/>
<path d="" fill="#FFFFFF" transform="translate(0,0)"/>
<path d="" fill="#FFFFFF" transform="translate(0,0)"/>
<path d="" fill="#FFFFFF" transform="translate(0,0)"/>
<path d="" fill="#FFFFFF" transform="translate(0,0)"/>
<path d="" fill="#FFFFFF" transform="translate(0,0)"/>
<path d="" fill="#FFFFFF" transform="translate(0,0)"/>
<path d="" fill="#FFFFFF" transform="translate(0,0)"/>
<path d="" fill="#FFFFFF" transform="translate(0,0)"/>
<path d="" fill="#FFFFFF" transform="translate(0,0)"/>
<path d="" fill="#FFFFFF" transform="translate(0,0)"/>
<path d="" fill="#00FFFF" transform="translate(0,0)"/>
<path d="" fill="#FFFFFF" transform="translate(0,0)"/>
<path d="" fill="#FFFFFF" transform="translate(0,0)"/>
<path d="" fill="#FFFFFF" transform="translate(0,0)"/>
<path d="" fill="#FFFFFF" transform="translate(0,0)"/>
<path d="" fill="#FFFFFF" transform="translate(0,0)"/>
<path d="" fill="#FFFFFF" transform="translate(0,0)"/>
<path d="" fill="#FFFFFF" transform="translate(0,0)"/>
<path d="" fill="#FFFFFF" transform="translate(0,0)"/>
<path d="" fill="#FFFFFF" transform="translate(0,0)"/>
<path d="" fill="#FFFFFF" transform="translate(0,0)"/>
<path d="" fill="#FFFFFF" transform="translate(0,0)"/>
<path d="" fill="#FFFFFF" transform="translate(0,0)"/>
<path d="" fill="#FFFFFF" transform="translate(0,0)"/>
<path d="" fill="#FFFFFF" transform="translate(0,0)"/>
<path d="" fill="#FFFFFF" transform="translate(0,0)"/>
<path d="" fill="#FFFFFF" transform="translate(0,0)"/>
<path d="" fill="#FFFFFF" transform="translate(0,0)"/>
<path d="" fill="#FFFFFF" transform="translate(0,0)"/>
<path d="" fill="#FFFFFF" transform="translate(0,0)"/>
<path d="" fill="#FFFFFF" transform="translate(0,0)"/>
<path d="" fill="#FFFFFF" transform="translate(0,0)"/>
<path d="" fill="#FFFFFF" transform="translate(0,0)"/>
<path d="" fill="#FFFFFF" transform="translate(0,0)"/>
<path d="" fill="#FFFFFF" transform="translate(0,0)"/>
<path d="" fill="#FFFFFF" transform="translate(0,0)"/>
<path d="" fill="#FFFFFF" transform="translate(0,0)"/>
<path d="" fill="#FFFFFF" transform="translate(0,0)"/>
<path d="" fill="#FFFFFF" transform="translate(0,0)"/>
<path d="" fill="#FFFFFF" transform="translate(0,0)"/>
<path d="" fill="#FFFFFF" transform="translate(0,0)"/>
<path d="" fill="#FFFFFF" transform="translate(0,0)"/>
<path d="" fill="#FFFFFF" transform="translate(0,0)"/>
</svg>
